<svg xmlns="http://www.w3.org/2000/svg" viewBox="0 0 32 32" role="img" aria-label="Guitar tutor">
  <rect width="32" height="32" rx="7" fill="#171310"/>
  <!-- guitar pick -->
  <path d="M16 6.4C20.4 6.4 24 9.2 24 13c0 4.6-4 9.8-6.9 12.5-.6.6-1.6.6-2.2 0C12 22.8 8 17.6 8 13c0-3.8 3.6-6.6 8-6.6Z" fill="#e6a95c"/>
  <!-- soft top highlight for a tactile, pick-like sheen -->
  <path d="M16 6.4c-4.4 0-8 2.8-8 6.6 0 1 .2 2 .5 3C9.7 12.5 12.6 10.4 16 10.4s6.3 2.1 7.5 5.6c.3-1 .5-2 .5-3 0-3.8-3.6-6.6-8-6.6Z" fill="#ffffff" opacity="0.14"/>
</svg>
